# xmcd CD database file
#
# Track frame offsets:
#	150
#	19050
#	36734
#	51809
#	67067
#	87932
#	103795
#	123451
#	141396
#	158203
#	173365
#	206548
#
# Disc length: 2989 seconds
#
# Revision: 1
# Processed by: cddbd v1.5.2PL0 Copyright (c) Steve Scherf et al.
# Submitted via: CDex 1.51
#
DISCID=ab0bab0c
DTITLE=Various Artist - Proburn-00
DYEAR=1900
DGENRE=Blues
TTITLE0=Ugly Kid Joe - Cat's In The Cradle
TTITLE1=Arrow - Hot Hot Hot
TTITLE2=Various Artist - 60's Medley-1
TTITLE3=Various Artist - 60's Medley-2
TTITLE4=Various Artist - 60's Medley-3
TTITLE5=Various Artist - 60's Medley-4
TTITLE6=Various Artist - Thank Abba For The Music
TTITLE7=Elbow - One Day Like This
TTITLE8=Elvis Presley - Medley-1
TTITLE9=Etta James - I Just Wanna Make Love To You
TTITLE10=Drifters The - Medley-1
TTITLE11=Various Artist - Perfect Day
EXTD=
EXTT0=
EXTT1=
EXTT2=
EXTT3=
EXTT4=
EXTT5=
EXTT6=
EXTT7=
EXTT8=
EXTT9=
EXTT10=
EXTT11=
PLAYORDER=
